<svg width="15" height="16" viewBox="0 0 15 16" fill="none" xmlns="http://www.w3.org/2000/svg">
<path d="M4.375 8H10.625M10 2.375C11.4619 2.375 12.1925 2.375 12.7262 2.71C13.0047 2.8849 13.2401 3.12032 13.415 3.39875C13.75 3.9325 13.75 4.6625 13.75 6.125C13.75 7.5875 13.75 8.3175 13.4144 8.85125C13.2398 9.12932 13.0048 9.3645 12.7269 9.53938C12.1919 9.875 11.4613 9.875 10 9.875H5C3.53813 9.875 2.8075 9.875 2.27375 9.53938C1.99546 9.36483 1.76005 9.12985 1.585 8.85187C1.25 8.31687 1.25 7.58625 1.25 6.125C1.25 4.66375 1.25 3.9325 1.585 3.39875C1.7599 3.12032 1.99532 2.8849 2.27375 2.71C2.8075 2.375 3.5375 2.375 5 2.375H10Z" stroke="#0B7FEB" stroke-width="0.7" stroke-linecap="round"/>
<path d="M11.25 4.875H11.2556" stroke="#0B7FEB" stroke-width="1.25" stroke-linecap="round" stroke-linejoin="round"/>
<path d="M4.25 11.75C4.25 11.75 4.75 12.9219 3.75 13.625M10.75 11.75C10.75 11.75 10.25 12.9219 11.25 13.625M7.5 11.75V13.625" stroke="#0B7FEB" stroke-width="0.7" stroke-linecap="round" stroke-linejoin="round"/>
</svg>
