<svg width="27" height="27" viewBox="0 0 27 27" fill="none" xmlns="http://www.w3.org/2000/svg">
<path d="M7.875 13.5H19.125M18 3.375C20.6314 3.375 21.9465 3.375 22.9072 3.978C23.4084 4.29282 23.8322 4.71658 24.147 5.21775C24.75 6.1785 24.75 7.4925 24.75 10.125C24.75 12.7575 24.75 14.0715 24.1459 15.0323C23.8316 15.5328 23.4086 15.9561 22.9084 16.2709C21.9454 16.875 20.6303 16.875 18 16.875H9C6.36863 16.875 5.0535 16.875 4.09275 16.2709C3.59182 15.9567 3.16809 15.5337 2.853 15.0334C2.25 14.0704 2.25 12.7553 2.25 10.125C2.25 7.49475 2.25 6.1785 2.853 5.21775C3.16782 4.71658 3.59158 4.29282 4.09275 3.978C5.0535 3.375 6.3675 3.375 9 3.375H18Z" stroke="white" stroke-width="1.26" stroke-linecap="round"/>
<path d="M20.25 7.875H20.2601" stroke="white" stroke-width="2.25" stroke-linecap="round" stroke-linejoin="round"/>
<path d="M7.65 20.25C7.65 20.25 8.55 22.3594 6.75 23.625M19.35 20.25C19.35 20.25 18.45 22.3594 20.25 23.625M13.5 20.25V23.625" stroke="white" stroke-width="1.26" stroke-linecap="round" stroke-linejoin="round"/>
</svg>
