<svg width="18" height="18" viewBox="0 0 18 18" fill="none" xmlns="http://www.w3.org/2000/svg">
<path d="M12.5996 0.0996094C12.8118 0.0996094 13.016 0.183956 13.166 0.333984C13.316 0.484013 13.4004 0.688217 13.4004 0.900391V1.90039H15.2998C15.9893 1.90039 16.6511 2.1736 17.1387 2.66113C17.6263 3.14873 17.9004 3.81044 17.9004 4.5V15.2998C17.9004 15.9894 17.6263 16.6511 17.1387 17.1387C16.6511 17.6263 15.9894 17.9004 15.2998 17.9004H2.7002C2.01063 17.9004 1.34892 17.6263 0.861328 17.1387C0.373734 16.6511 0.0996094 15.9894 0.0996094 15.2998V4.5C0.0996094 3.81044 0.373734 3.14873 0.861328 2.66113C1.34891 2.1736 2.01068 1.90039 2.7002 1.90039H4.59961V0.900391C4.59961 0.688217 4.68395 0.484013 4.83398 0.333984C4.98401 0.183955 5.18822 0.0996094 5.40039 0.0996094C5.61238 0.0997128 5.81589 0.184108 5.96582 0.333984C6.11585 0.484013 6.2002 0.688217 6.2002 0.900391V1.90039H11.7998V0.900391C11.7998 0.688217 11.8842 0.484013 12.0342 0.333984C12.1841 0.184108 12.3876 0.0997125 12.5996 0.0996094ZM1.7002 15.2998C1.7002 15.565 1.80563 15.8193 1.99316 16.0068C2.1807 16.1944 2.43498 16.2998 2.7002 16.2998H15.2998C15.565 16.2998 15.8193 16.1944 16.0068 16.0068C16.1944 15.8193 16.2998 15.565 16.2998 15.2998V8.90039H1.7002V15.2998ZM2.7002 3.5C2.43502 3.5 2.18069 3.60549 1.99316 3.79297C1.80563 3.98051 1.7002 4.23478 1.7002 4.5V7.2998H16.2998V4.5C16.2998 4.23478 16.1944 3.98051 16.0068 3.79297C15.8193 3.60549 15.565 3.5 15.2998 3.5H13.4004V4.5C13.4004 4.71204 13.3159 4.91543 13.166 5.06543C13.016 5.21546 12.8118 5.2998 12.5996 5.2998C12.3876 5.2997 12.1841 5.21537 12.0342 5.06543C11.8843 4.91542 11.7998 4.71208 11.7998 4.5V3.5H6.2002V4.5C6.2002 4.71208 6.11573 4.91542 5.96582 5.06543C5.81588 5.21537 5.61242 5.2997 5.40039 5.2998C5.18822 5.2998 4.98401 5.21546 4.83398 5.06543C4.68414 4.91543 4.59961 4.71203 4.59961 4.5V3.5H2.7002Z" fill="#3425FF" stroke="white" stroke-width="0.2"/>
</svg>
