<svg width="22" height="22" viewBox="0 0 22 22" fill="none" xmlns="http://www.w3.org/2000/svg">
<path opacity="0.4" d="M14.9996 0H19.0004C20.6574 0 22 1.34261 22 2.99955V7.00045C22 8.65739 20.6574 10 19.0004 10H14.9996C13.3426 10 12 8.65739 12 7.00045V2.99955C12 1.34261 13.3426 0 14.9996 0Z" fill="#676767"/>
<path d="M7.26379 12.3434C8.5492 12.3434 9.59077 13.3938 9.59077 14.69V17.82C9.59077 19.1154 8.5492 20.1667 7.26379 20.1667H4.15999C2.87458 20.1667 1.83301 19.1154 1.83301 17.82V14.69C1.83301 13.3938 2.87458 12.3434 4.15999 12.3434H7.26379ZM17.8394 12.3434C19.1248 12.3434 20.1663 13.3938 20.1663 14.69V17.82C20.1663 19.1154 19.1248 20.1667 17.8394 20.1667H14.7356C13.4501 20.1667 12.4086 19.1154 12.4086 17.82V14.69C12.4086 13.3938 13.4501 12.3434 14.7356 12.3434H17.8394ZM7.26379 1.83334C8.5492 1.83334 9.59077 2.88371 9.59077 4.17998V7.30999C9.59077 8.60626 8.5492 9.65662 7.26379 9.65662H4.15999C2.87458 9.65662 1.83301 8.60626 1.83301 7.30999V4.17998C1.83301 2.88371 2.87458 1.83334 4.15999 1.83334H7.26379Z" fill="#3425FF"/>
</svg>
