<svg width="16" height="20" viewBox="0 0 16 20" fill="none" xmlns="http://www.w3.org/2000/svg">
<path opacity="0.4" d="M14.2411 7.26923C13.8272 7.26923 13.279 7.26006 12.5964 7.26006C10.9318 7.26006 9.56309 5.88231 9.56309 4.20206V1.25406C9.56309 1.02215 9.37793 0.833313 9.1483 0.833313H4.29966C2.03691 0.833313 0.208008 2.69048 0.208008 4.96656V14.8436C0.208008 17.2316 2.12404 19.1666 4.48845 19.1666H11.7088C13.9633 19.1666 15.7913 17.3214 15.7913 15.0435V7.68173C15.7913 7.44889 15.6071 7.26098 15.3765 7.26189C14.989 7.26464 14.5243 7.26923 14.2411 7.26923Z" fill="#C9C1FF"/>
<path d="M11.7438 1.35336C11.4697 1.06828 10.9912 1.26444 10.9912 1.65953V4.07678C10.9912 5.09061 11.8263 5.92478 12.8401 5.92478C13.479 5.93211 14.3664 5.93394 15.1199 5.93211C15.5058 5.93119 15.702 5.47011 15.4343 5.19144C14.4672 4.18586 12.7356 2.38369 11.7438 1.35336Z" fill="#3425FF"/>
<path d="M10.2164 12.6517C10.5931 12.6517 10.8993 12.9579 10.8993 13.3346C10.8993 13.7114 10.5931 14.0166 10.2164 14.0166H5.22604C4.84929 14.0166 4.54404 13.7114 4.54404 13.3346C4.54404 12.9579 4.84929 12.6517 5.22604 12.6517H10.2164ZM8.32886 8.0737C8.70561 8.0737 9.01178 8.37987 9.01178 8.75662C9.01178 9.13337 8.70561 9.43862 8.32886 9.43862H5.22595C4.8492 9.43862 4.54395 9.13337 4.54395 8.75662C4.54395 8.37987 4.8492 8.0737 5.22595 8.0737H8.32886Z" fill="#3425FF"/>
</svg>
