<svg width="18" height="19" viewBox="0 0 18 19" fill="none" xmlns="http://www.w3.org/2000/svg">
<path d="M15.3359 12.5547C15.0779 12.064 14.5298 11.7245 13.8379 11.8096H13.8369C12.9842 11.9143 12.0238 12.0704 11.0615 12.3066C9.5397 12.6798 8.21638 13.4402 7.29395 14.0879V14.0869L7.01953 14.2852V14.2861L6.89648 14.3779H6.89551L6.66406 14.5576V14.5586L6.45605 14.7266L6.21875 14.9297C6.1462 14.9943 6.11801 15.0537 6.10742 15.0996C6.09601 15.1493 6.10018 15.2059 6.12305 15.2646C6.17077 15.3872 6.28534 15.4813 6.41992 15.4971L6.48438 15.5H12.5986C13.034 15.4999 13.464 15.4092 13.8604 15.2344C14.2569 15.0594 14.6111 14.8041 14.8984 14.4863L15.0059 14.3604L15.1416 14.1953C15.5647 13.6757 15.5917 13.0411 15.3359 12.5547ZM13.8926 12.2051C14.387 12.1445 14.7658 12.3792 14.9512 12.7295L14.9561 12.7383C15.0433 12.9111 15.0829 13.1043 15.0703 13.2979C15.0609 13.443 15.0224 13.584 14.958 13.7129L14.8848 13.8379L14.877 13.8486L14.8193 13.9297L14.8105 13.9414L14.8008 13.9541L14.6582 14.1289H14.6572C14.4272 14.4106 14.1404 14.6416 13.8154 14.8076C13.4903 14.9737 13.1336 15.0715 12.7686 15.0947L12.7607 15.0957H12.752L12.6133 15.0996H6.48926L7.88184 14.1826C8.73125 13.6228 9.87467 13.0105 11.1689 12.6934L11.1719 12.6924C12.0682 12.4775 12.9771 12.3145 13.8936 12.2051H13.8926ZM4.64062 2.50293C4.41759 2.51861 4.24068 2.63994 4.10938 2.80469L4.1084 2.80566C4.00515 2.93433 3.92149 3.09851 3.85254 3.2832L3.78809 3.47461C3.66796 3.87176 3.59158 4.37021 3.54785 4.9082L3.51465 5.45801C3.49544 5.92237 3.49557 6.40924 3.51074 6.88379L3.53125 7.35352L3.56055 7.80469C3.60968 8.47084 3.68595 9.03638 3.7666 9.3916C4.12992 10.9941 4.74728 11.8863 5.36719 12.3467C5.98135 12.8023 6.60717 12.8353 6.92969 12.6768H6.93066C7.08042 12.6036 7.25725 12.4528 7.42773 12.2598C7.57745 12.087 7.70977 11.9004 7.82227 11.7031L7.92773 11.502L8.03125 11.2686C8.25534 10.7054 8.35287 10.015 8.10645 9.29004C7.94496 8.81505 7.63486 8.50742 7.30957 8.24414L7.30859 8.24512L7.08496 8.06641L7.08398 8.06738C6.72969 7.79097 6.36831 7.50599 6.0752 7.03027L5.9541 6.81445C5.83131 6.57366 5.78487 6.20847 5.77344 5.76367V5.75586L5.77051 5.54395V5.5332L5.77637 5.01074V5.00781L5.78125 4.375C5.77625 3.92054 5.74446 3.46863 5.60449 3.12695C5.53307 2.95293 5.42966 2.79356 5.27441 2.67773C5.18003 2.60947 5.07264 2.56164 4.95996 2.53223L5.23242 3.3457C5.31868 3.60249 5.34918 3.95728 5.35352 4.37891V4.58789L5.34766 5.07031V5.07129C5.34407 5.3067 5.3403 5.54377 5.3457 5.77148C5.35706 6.21817 5.40159 6.6606 5.56738 6.98535V6.98633C5.8366 7.51546 6.18227 7.86002 6.50684 8.13086L6.69922 8.28809L6.80859 8.37305L6.80957 8.37402C7.21733 8.69252 7.54105 8.94645 7.69824 9.41016C7.94027 10.1205 7.80074 10.801 7.53809 11.3369V11.3359C7.4089 11.6029 7.25103 11.8291 7.10059 12.001V12.002C7.02696 12.0868 6.96102 12.1493 6.91113 12.1934L6.90137 12.2021L6.84766 12.2461L6.69922 12.3711L6.50684 12.3623L6.43848 12.3604L6.41895 12.3584C6.25686 12.3453 6.02483 12.2911 5.75195 12.1162L5.63281 12.0332C5.11833 11.6505 4.53536 10.8567 4.18457 9.30859V9.30762C4.15064 9.15633 4.11788 8.97056 4.08887 8.7627L4.08789 8.75586L4.04883 8.43652C4.04089 8.37419 4.03406 8.31038 4.02832 8.24512L3.99414 7.87402L3.99316 7.86426L3.96582 7.4668L3.96484 7.45898L3.9541 7.25293L3.95312 7.24414L3.9375 6.82031L3.93652 6.81641C3.92246 6.36922 3.9249 5.92168 3.94238 5.47461V5.47266L3.97461 4.93652C4.01006 4.50264 4.06695 4.10452 4.14844 3.77344L4.2002 3.58301C4.22798 3.48922 4.26138 3.39888 4.29883 3.31055L4.64062 2.50293Z" fill="black" stroke="#3425FF"/>
</svg>
