<svg width="12" height="12" viewBox="0 0 12 12" fill="none" xmlns="http://www.w3.org/2000/svg">
<path d="M2.49967 10.0833C2.19026 10.0833 1.89351 9.96042 1.67472 9.74162C1.45592 9.52283 1.33301 9.22609 1.33301 8.91667V6.58333M2.49967 10.0833V10.9583C2.49967 11.0357 2.5304 11.1099 2.5851 11.1646C2.6398 11.2193 2.71399 11.25 2.79134 11.25C2.8687 11.25 2.94288 11.2193 2.99758 11.1646C3.05228 11.1099 3.08301 11.0357 3.08301 10.9583V10.0833M2.49967 10.0833H3.08301M1.33301 6.58333V3.08333M1.33301 6.58333H5.99967M3.08301 10.0833H8.91634M9.49967 10.0833C9.80909 10.0833 10.1058 9.96042 10.3246 9.74162C10.5434 9.52283 10.6663 9.22609 10.6663 8.91667V6.58333M9.49967 10.0833V10.9583C9.49967 11.0357 9.46895 11.1099 9.41425 11.1646C9.35955 11.2193 9.28536 11.25 9.20801 11.25C9.13065 11.25 9.05647 11.2193 9.00177 11.1646C8.94707 11.1099 8.91634 11.0357 8.91634 10.9583V10.0833M9.49967 10.0833H8.91634M10.6663 6.58333V3.08333M10.6663 6.58333H5.99967M1.33301 3.08333C1.33301 2.46449 1.57884 1.871 2.01643 1.43342C2.45401 0.995833 3.0475 0.75 3.66634 0.75H8.33301C8.95185 0.75 9.54534 0.995833 9.98292 1.43342C10.4205 1.871 10.6663 2.46449 10.6663 3.08333M1.33301 3.08333H5.99967M5.99967 6.58333V3.08333M10.6663 3.08333H5.99967" stroke="#B39E00" stroke-width="1.16667" stroke-linecap="round" stroke-linejoin="round"/>
</svg>
