<svg width="51" height="51" viewBox="0 0 51 51" fill="none" xmlns="http://www.w3.org/2000/svg">
<rect x="0.404762" y="0.404762" width="50.1905" height="50.1905" rx="25.0952" fill="#E8E6FF"/>
<rect x="0.404762" y="0.404762" width="50.1905" height="50.1905" rx="25.0952" stroke="#3425FF" stroke-width="0.809524"/>
<path d="M19.1875 33.5C18.6073 33.5 18.0509 33.2695 17.6407 32.8593C17.2305 32.4491 17 31.8927 17 31.3125V26.9375M19.1875 33.5V35.1406C19.1875 35.2857 19.2451 35.4248 19.3477 35.5273C19.4502 35.6299 19.5893 35.6875 19.7344 35.6875C19.8794 35.6875 20.0185 35.6299 20.1211 35.5273C20.2236 35.4248 20.2812 35.2857 20.2812 35.1406V33.5M19.1875 33.5H20.2812M17 26.9375V20.375M17 26.9375H25.75M20.2812 33.5H31.2188M32.3125 33.5C32.8927 33.5 33.4491 33.2695 33.8593 32.8593C34.2695 32.4491 34.5 31.8927 34.5 31.3125V26.9375M32.3125 33.5V35.1406C32.3125 35.2857 32.2549 35.4248 32.1523 35.5273C32.0498 35.6299 31.9107 35.6875 31.7656 35.6875C31.6206 35.6875 31.4815 35.6299 31.3789 35.5273C31.2764 35.4248 31.2188 35.2857 31.2188 35.1406V33.5M32.3125 33.5H31.2188M34.5 26.9375V20.375M34.5 26.9375H25.75M17 20.375C17 19.2147 17.4609 18.1019 18.2814 17.2814C19.1019 16.4609 20.2147 16 21.375 16H30.125C31.2853 16 32.3981 16.4609 33.2186 17.2814C34.0391 18.1019 34.5 19.2147 34.5 20.375M17 20.375H25.75M25.75 26.9375V20.375M34.5 20.375H25.75" stroke="#3425FF" stroke-width="1.75" stroke-linecap="round" stroke-linejoin="round"/>
</svg>
