<svg width="21" height="21" viewBox="0 0 21 21" fill="none" xmlns="http://www.w3.org/2000/svg">
<rect x="0.5" y="0.170227" width="20" height="20" rx="10" fill="#ECECEC"/>
<g clip-path="url(#clip0_5172_13128)">
<path d="M7.53378 4.42106L8.23398 4.21C9.02748 3.97082 9.87528 4.35736 10.2151 5.11326L10.7561 6.31669C11.0457 6.96099 10.8931 7.71819 10.3765 8.19996L9.47988 9.03603C9.45368 9.06047 9.43709 9.09348 9.43311 9.12909C9.4065 9.36738 9.56803 9.83142 9.94019 10.476C10.2108 10.9448 10.4558 11.2735 10.6643 11.4584C10.8095 11.5872 10.8895 11.615 10.9235 11.6049L12.1297 11.2361C12.8051 11.0297 13.537 11.2759 13.9502 11.8486L14.7186 12.9136C15.2023 13.5839 15.1153 14.5087 14.5151 15.0771L13.9833 15.5807C13.4095 16.1242 12.5926 16.3267 11.8313 16.1142C10.1788 15.653 8.69726 14.2585 7.37013 11.9598C6.04117 9.65799 5.57485 7.67533 6.00472 6.01225C6.20144 5.25116 6.78112 4.64793 7.53378 4.42106ZM7.79352 5.28276C7.34192 5.41889 6.99412 5.78083 6.87608 6.23748C6.51449 7.63639 6.92781 9.3937 8.14956 11.5098C9.36968 13.6231 10.683 14.8593 12.0733 15.2473C12.53 15.3748 13.0202 15.2533 13.3645 14.9272L13.8963 14.4236C14.1691 14.1652 14.2086 13.7449 13.9888 13.4402L13.2203 12.3752C13.0325 12.1149 12.6998 12.003 12.3929 12.0968L11.1837 12.4665C10.4818 12.6757 9.84482 12.1108 9.16077 10.926C8.69978 10.1276 8.48493 9.51036 8.53867 9.02919C8.56651 8.77993 8.68265 8.54887 8.86608 8.37781L9.76267 7.54174C9.9975 7.32275 10.0669 6.97857 9.93522 6.68571L9.39422 5.48228C9.23976 5.13869 8.8544 4.96299 8.49372 5.07171L7.79352 5.28276Z" fill="#3425FF"/>
</g>
<defs>
<clipPath id="clip0_5172_13128">
<rect width="12" height="12" fill="white" transform="translate(4.5 4.17023)"/>
</clipPath>
</defs>
</svg>
