<svg width="148" height="5" viewBox="0 0 148 5" fill="none" xmlns="http://www.w3.org/2000/svg">
<path d="M30.6334 3.63556L30.7097 3.7501C29.5263 3.59739 28.1901 3.7501 26.9303 3.67374L27.0067 3.71192C23.7999 3.7501 20.8603 3.59739 17.6917 3.52103C17.7299 3.52103 17.7681 3.55921 17.8063 3.55921C17.6536 3.52103 17.5009 3.48285 17.31 3.48285C17.2718 3.52103 17.3482 3.52103 17.4245 3.52103C16.7373 3.67374 15.4775 3.44467 15.0576 3.55921C14.8667 3.55921 14.7904 3.48285 14.9049 3.44467C12.4235 3.40649 9.78933 3.36831 7.26972 3.29195C7.15519 3.33013 7.11702 3.33013 7.15519 3.40649C4.97917 3.13923 2.68862 3.25377 0.51259 3.29195C0.436238 3.21559 0.741645 3.21559 0.51259 3.17741C1.19976 3.06288 1.81057 3.29195 2.45956 3.17741L2.38321 3.13923C2.84132 3.10105 2.45956 3.29195 2.95585 3.21559C3.14673 3.17741 2.91767 3.13923 2.99402 3.13923C3.9866 3.17741 5.01734 3.10105 5.97174 3.25377C6.2008 3.13923 7.04067 3.25377 7.42243 3.13923C7.68966 3.17741 7.91871 3.17741 8.03324 3.25377C11.4691 3.17741 15.0576 3.29195 18.608 3.29195C20.2877 3.52103 22.2728 3.25377 24.258 3.33013V3.29195C24.907 3.36831 25.8614 3.36831 26.6249 3.33013L27.2739 3.44467C31.9313 3.25377 36.6652 3.36831 41.3608 3.29195C46.7054 3.21559 51.401 3.06288 56.6311 3.36831C56.6311 3.33013 56.6693 3.33013 56.5166 3.33013C58.0055 3.36831 59.3798 3.29195 60.7923 3.33013V3.29195C62.5484 3.40649 64.3808 3.36831 66.1751 3.36831H66.8623C67.0532 3.36831 67.2822 3.33013 67.4731 3.29195C67.893 3.17741 68.2748 2.94834 68.6184 2.71926C69.3055 2.22293 69.9164 1.57388 70.5272 0.963015C71.2525 0.199429 72.436 -0.182364 73.5431 0.0848908C74.0775 0.199429 74.612 0.504863 75.0319 0.886656C75.4519 1.26845 75.7954 1.68842 76.1772 2.10839C76.559 2.49019 76.9789 2.87198 77.4752 3.13923C77.7042 3.25377 77.9715 3.36831 78.2387 3.44467C78.5059 3.52103 78.7732 3.52103 79.0404 3.52103C80.1475 3.52103 81.2546 3.55921 82.3617 3.55921V3.52103C85.8739 3.63556 89.2334 3.36831 92.7074 3.44467C96.2959 3.33013 100.075 3.71192 103.702 3.55921C105.954 3.33013 108.894 3.82646 110.994 3.59739C115.307 3.21559 119.507 3.48285 123.821 3.67374C127.791 3.55921 131.799 3.86464 135.655 3.59739C137.488 3.78828 139.511 3.36831 141.534 3.44467L141.458 3.52103C142.183 3.33013 143.1 3.78828 143.558 3.52103H143.481C143.863 3.36831 144.398 3.82646 144.627 3.67374L144.703 3.7501C145.161 3.78828 144.741 3.67374 145.123 3.63556C145.276 3.63556 145.161 3.7501 145.466 3.71192C145.543 3.44467 146.612 3.78828 146.65 3.48285C146.383 3.48285 147.032 3.36831 146.459 3.29195C146.612 3.25377 147.413 3.29195 147.337 3.40649C147.413 3.55921 147.719 3.67374 147.223 3.78828L147.146 3.67374C146.993 3.78828 147.032 3.71192 146.955 3.78828C146.344 3.78828 146.23 3.941 145.81 4.01736C145.505 3.90282 145.085 3.97918 144.856 3.97918L144.779 4.01736C144.627 4.1319 144.054 3.78828 144.245 3.97918C142.985 3.941 141.534 3.941 140.122 3.941C139.931 3.86464 139.053 3.941 139.358 3.78828C139.015 3.941 137.946 4.01736 137.564 3.97918C137.564 3.97918 137.602 4.01736 137.64 4.01736C136.877 4.24643 136.724 3.82646 136.037 4.09372C135.922 3.90282 134.739 4.17007 134.357 3.941C134.166 3.97918 134.166 4.01736 134.166 4.05554C132.868 4.05554 131.456 4.1319 130.387 4.1319C129.471 3.97918 128.135 4.20825 127.371 3.97918C126.722 4.01736 125.653 4.1319 124.737 4.01736L124.813 4.05554C123.783 4.05554 122.485 4.01736 121.759 3.90282C121.454 4.1319 120.996 4.09372 120.538 4.17007C119.85 4.05554 118.438 4.09372 117.407 4.01736C117.254 4.1319 116.529 3.97918 116.491 4.1319C113.513 3.82646 109.848 3.941 106.68 4.17007H106.718C106.298 4.09372 105.84 3.90282 105.42 3.82646C105.382 3.82646 105.382 3.86464 105.458 3.86464C104.885 3.82646 104.351 3.97918 103.778 3.941C103.778 3.941 103.817 3.97918 103.893 3.97918C103.358 3.90282 102.786 4.09372 102.137 3.97918H102.099L101.679 3.941C101.679 3.97918 101.717 4.05554 101.908 4.05554C96.9449 4.09372 91.8293 3.86464 86.7137 3.90282L86.9046 3.941L85.912 3.86464C85.912 3.90282 85.9502 3.90282 86.0266 3.90282C84.7668 3.97918 83.4688 3.86464 82.2472 3.86464C82.2472 3.90282 82.438 3.941 82.2853 3.97918C81.3691 3.86464 80.8347 4.1319 80.3765 3.86464C80.3384 3.86464 80.3002 3.941 80.4147 3.941C80.1093 3.941 79.7657 3.90282 79.4603 3.90282C79.1549 3.90282 78.8495 3.90282 78.4678 3.86464C77.7424 3.7501 77.1698 3.36831 76.6353 2.94834C76.139 2.52837 75.6809 2.03203 75.2228 1.57388C74.9938 1.34481 74.8029 1.11573 74.5738 0.963015C74.3448 0.810297 74.0775 0.65758 73.8103 0.581222C73.3904 0.352146 72.8559 0.275788 72.3214 0.390326C71.787 0.466684 71.2907 0.733939 70.9089 1.07755C70.1454 1.84114 69.3819 2.79562 68.3511 3.29195L68.3893 3.33013C68.0457 3.48285 67.7021 3.63556 67.3204 3.67374C66.9386 3.71192 66.595 3.67374 66.2133 3.67374C65.488 3.67374 64.7626 3.67374 63.9991 3.67374C62.5102 3.71192 61.0214 3.7501 59.5325 3.71192C58.3109 3.7501 57.471 3.67374 56.2494 3.67374L56.2112 3.7501C54.1497 3.52103 51.8592 3.97918 49.6831 3.71192L49.8358 3.78828C49.4923 3.67374 48.5379 3.82646 48.6524 3.59739L48.2706 3.67374C46.8199 3.36831 45.5983 3.82646 43.804 3.59739L43.9186 3.63556C43.4223 3.59739 42.8878 3.55921 42.5061 3.59739C42.5824 3.59739 42.5442 3.63556 42.6588 3.63556C41.1699 3.86464 39.4902 3.59739 37.925 3.63556L38.1158 3.7501C37.3523 3.63556 35.9398 3.7501 34.9472 3.67374L35.0236 3.71192L34.5273 3.63556V3.71192C33.153 3.7501 31.9313 3.67374 30.6334 3.63556Z" fill="url(#paint0_linear_4213_21467)"/>
<path d="M30.6334 0.53451L30.7097 0.419972C29.5263 0.572689 28.1901 0.419972 26.9303 0.496331L27.0067 0.458151C23.7999 0.419972 20.8603 0.572689 17.6917 0.649048C17.7299 0.649048 17.7681 0.610869 17.8063 0.610869C17.6536 0.649048 17.5009 0.687227 17.31 0.687227C17.2718 0.649048 17.3482 0.649048 17.4245 0.649048C16.7373 0.496331 15.4775 0.725406 15.0576 0.610869C14.8667 0.610869 14.7904 0.687227 14.9049 0.725406C12.4235 0.763586 9.78933 0.801765 7.26972 0.878123C7.15519 0.839944 7.11702 0.839944 7.15519 0.763586C4.97917 1.03084 2.68862 0.916303 0.51259 0.878123C0.436238 0.954482 0.741645 0.954482 0.51259 0.992661C1.19976 1.1072 1.81057 0.878124 2.45956 0.992661L2.38321 1.03084C2.84132 1.06902 2.45956 0.878123 2.95585 0.954482C3.14673 0.992661 2.91767 1.03084 2.99402 1.03084C3.9866 0.992661 5.01734 1.06902 5.97174 0.916303C6.2008 1.03084 7.04067 0.916303 7.42243 1.03084C7.68966 0.992661 7.91871 0.992661 8.03324 0.916303C11.4691 0.992661 15.0576 0.878123 18.608 0.878123C20.2877 0.649048 22.2728 0.916303 24.258 0.839944V0.878123C24.907 0.801765 25.8614 0.801765 26.6249 0.839944L27.2739 0.725406C31.9313 0.916303 36.6652 0.801765 41.3608 0.878123C46.7054 0.954482 51.401 1.1072 56.6311 0.801765C56.6311 0.839944 56.6693 0.839944 56.5166 0.839944C58.0055 0.801765 59.3798 0.878124 60.7923 0.839944V0.878123C62.5484 0.763586 64.3808 0.801765 66.1751 0.801765L66.8623 0.801765C67.0532 0.801765 67.2822 0.839944 67.4731 0.878123C67.893 0.992661 68.2748 1.22174 68.6184 1.45081C69.3055 1.94714 69.9164 2.59619 70.5272 3.20706C71.2525 3.97065 72.436 4.35244 73.5431 4.08518C74.0775 3.97065 74.612 3.66521 75.0319 3.28342C75.4519 2.90163 75.7954 2.48165 76.1772 2.06168C76.559 1.67989 76.9789 1.2981 77.4752 1.03084C77.7042 0.916303 77.9715 0.801765 78.2387 0.725406C78.5059 0.649048 78.7732 0.649048 79.0404 0.649048C80.1475 0.649048 81.2546 0.610869 82.3617 0.610869V0.649048C85.8739 0.53451 89.2334 0.801765 92.7074 0.725406C96.2959 0.839944 100.075 0.458151 103.702 0.610869C105.954 0.839944 108.894 0.343614 110.994 0.572689C115.307 0.954482 119.507 0.687227 123.821 0.496331C127.791 0.610868 131.799 0.305434 135.655 0.572689C137.488 0.381793 139.511 0.801765 141.534 0.725406L141.458 0.649048C142.183 0.839944 143.1 0.381793 143.558 0.649048H143.481C143.863 0.801765 144.398 0.343613 144.627 0.496331L144.703 0.419972C145.161 0.381793 144.741 0.496331 145.123 0.53451C145.276 0.53451 145.161 0.419972 145.466 0.458151C145.543 0.725406 146.612 0.381793 146.65 0.687227C146.383 0.687227 147.032 0.801765 146.459 0.878123C146.612 0.916303 147.413 0.878124 147.337 0.763586C147.413 0.610869 147.719 0.496331 147.223 0.381793L147.146 0.496331C146.993 0.381793 147.032 0.458151 146.955 0.381793C146.344 0.381793 146.23 0.229076 145.81 0.152717C145.505 0.267255 145.085 0.190896 144.856 0.190896L144.779 0.152717C144.627 0.0381793 144.054 0.381793 144.245 0.190896C142.985 0.229076 141.534 0.229076 140.122 0.229076C139.931 0.305434 139.053 0.229076 139.358 0.381793C139.015 0.229076 137.946 0.152717 137.564 0.190896C137.564 0.190896 137.602 0.152717 137.64 0.152717C136.877 -0.0763585 136.724 0.343613 136.037 0.0763585C135.922 0.267255 134.739 -4.55132e-08 134.357 0.229076C134.166 0.190896 134.166 0.152717 134.166 0.114538C132.868 0.114538 131.456 0.0381792 130.387 0.0381792C129.471 0.190896 128.135 -0.0381793 127.371 0.190896C126.722 0.152717 125.653 0.0381793 124.737 0.152717L124.813 0.114538C123.783 0.114538 122.485 0.152717 121.759 0.267255C121.454 0.0381792 120.996 0.0763586 120.538 0C119.85 0.114538 118.438 0.0763586 117.407 0.152717C117.254 0.0381793 116.529 0.190896 116.491 0.0381792C113.513 0.343614 109.848 0.229076 106.68 0L106.718 0C106.298 0.0763586 105.84 0.267255 105.42 0.343614C105.382 0.343614 105.382 0.305434 105.458 0.305434C104.885 0.343613 104.351 0.190896 103.778 0.229076C103.778 0.229076 103.817 0.190896 103.893 0.190896C103.358 0.267255 102.786 0.0763586 102.137 0.190896L102.099 0.190896L101.679 0.229076C101.679 0.190896 101.717 0.114538 101.908 0.114538C96.9449 0.0763585 91.8293 0.305434 86.7137 0.267255L86.9046 0.229076L85.912 0.305434C85.912 0.267255 85.9502 0.267255 86.0266 0.267255C84.7668 0.190896 83.4688 0.305434 82.2472 0.305434C82.2472 0.267255 82.438 0.229076 82.2853 0.190896C81.3691 0.305434 80.8347 0.0381792 80.3765 0.305434C80.3384 0.305434 80.3002 0.229076 80.4147 0.229076C80.1093 0.229076 79.7657 0.267255 79.4603 0.267255C79.1549 0.267255 78.8495 0.267255 78.4678 0.305434C77.7424 0.419972 77.1698 0.801765 76.6353 1.22174C76.139 1.64171 75.6809 2.13804 75.2228 2.59619C74.9938 2.82527 74.8029 3.05434 74.5738 3.20706C74.3448 3.35978 74.0775 3.51249 73.8103 3.58885C73.3904 3.81793 72.8559 3.89429 72.3214 3.77975C71.787 3.70339 71.2907 3.43614 70.9089 3.09252C70.1454 2.32894 69.3819 1.37445 68.3511 0.878123L68.3893 0.839944C68.0457 0.687227 67.7021 0.53451 67.3204 0.496331C66.9386 0.458151 66.595 0.496331 66.2133 0.496331C65.488 0.496331 64.7626 0.496331 63.9991 0.496331C62.5102 0.458151 61.0214 0.419972 59.5325 0.458151C58.3109 0.419972 57.471 0.496331 56.2494 0.496331L56.2112 0.419972C54.1497 0.649048 51.8592 0.190896 49.6831 0.458151L49.8358 0.381793C49.4923 0.496331 48.5379 0.343614 48.6524 0.572689L48.2706 0.496331C46.8199 0.801765 45.5983 0.343614 43.804 0.572689L43.9186 0.53451C43.4223 0.572689 42.8878 0.610869 42.5061 0.572689C42.5824 0.572689 42.5442 0.53451 42.6588 0.53451C41.1699 0.305434 39.4902 0.572689 37.925 0.53451L38.1158 0.419972C37.3523 0.53451 35.9398 0.419972 34.9472 0.496331L35.0236 0.458151L34.5273 0.53451V0.458151C33.153 0.419972 31.9313 0.496331 30.6334 0.53451Z" fill="url(#paint1_linear_4213_21467)"/>
<defs>
<linearGradient id="paint0_linear_4213_21467" x1="-1.57601" y1="2.09018" x2="147.467" y2="2.09018" gradientUnits="userSpaceOnUse">
<stop stop-color="#0F6CBD" stop-opacity="0"/>
<stop offset="0.25" stop-color="#0F6CBD"/>
<stop offset="0.500694" stop-color="#0F6CBD"/>
<stop offset="0.75" stop-color="#0F6CBD"/>
<stop offset="1" stop-color="#0F6CBD" stop-opacity="0"/>
</linearGradient>
<linearGradient id="paint1_linear_4213_21467" x1="-1.57601" y1="2.07989" x2="147.467" y2="2.07989" gradientUnits="userSpaceOnUse">
<stop stop-color="#0F6CBD" stop-opacity="0"/>
<stop offset="0.25" stop-color="#0F6CBD"/>
<stop offset="0.500694" stop-color="#0F6CBD"/>
<stop offset="0.75" stop-color="#0F6CBD"/>
<stop offset="1" stop-color="#0F6CBD" stop-opacity="0"/>
</linearGradient>
</defs>
</svg>
