<svg width="16" height="16" viewBox="0 0 16 16" fill="none" xmlns="http://www.w3.org/2000/svg">
<g clip-path="url(#clip0_5220_213)">
<path fill-rule="evenodd" clip-rule="evenodd" d="M11.5 14C13.99 14 16 13 16 11.5V2C16 1 14 0 11.5 0C9 0 7 1 7 2V4.83465C7 5.23769 7.24559 5.59514 7.59957 5.78784C8.27116 6.15344 8.87239 6.63346 9.37643 7.20333C9.7246 7.59697 10.1683 7.91759 10.6918 7.96408C10.9499 7.987 11.2193 7.999 11.5 7.999C12.81 7.999 13.9 7.738 14.68 7.313C14.7907 7.25214 14.8985 7.18606 15.003 7.115V8.495C15.003 8.73 14.816 9.095 14.201 9.431C13.605 9.756 12.691 9.995 11.501 9.995C11.4833 9.995 11.4656 9.99495 11.448 9.99485C11.1392 9.9931 10.8954 10.2758 10.9381 10.5816C10.9695 10.8061 11.1501 10.9884 11.3767 10.9912C11.4179 10.9917 11.4593 10.992 11.501 10.992C12.811 10.992 13.901 10.731 14.681 10.306C14.7917 10.2451 14.8995 10.1791 15.004 10.108V11.488C15.004 11.724 14.855 12.074 14.213 12.42C13.581 12.76 12.633 12.988 11.503 12.988C11.4142 12.988 11.3265 12.9866 11.2398 12.9838C11.0073 12.9764 10.7978 13.1291 10.7311 13.352C10.6424 13.6488 10.832 13.968 11.1415 13.9801C11.2603 13.9847 11.3804 13.987 11.502 13.987L11.5 14ZM14.2 6.44C14.815 6.104 15.002 5.739 15.002 5.504V4.124C14.8987 4.19467 14.791 4.26067 14.679 4.322C13.901 4.747 12.809 5.008 11.499 5.008C10.189 5.008 9.099 4.747 8.319 4.322C8.20827 4.26114 8.10048 4.19506 7.996 4.124V5.504C7.996 5.739 8.183 6.104 8.798 6.439C9.394 6.764 10.308 7.003 11.498 7.003C12.688 7.003 13.598 6.764 14.198 6.439L14.2 6.44ZM8 2.5C8 2.212 8.125 1.935 8.358 1.766C8.485 1.674 8.623 1.582 8.732 1.532C9.005 1.406 10.372 0.999 11.502 0.999C12.632 0.999 13.612 1.226 14.272 1.532C14.396 1.589 14.533 1.678 14.654 1.766C14.885 1.933 15.004 2.208 15.004 2.493V2.499C15.004 2.734 14.817 3.099 14.202 3.435C13.606 3.76 12.692 3.999 11.502 3.999C10.312 3.999 9.402 3.759 8.802 3.435C8.187 3.1 8 2.734 8 2.5Z" fill="#3425FF"/>
<path fill-rule="evenodd" clip-rule="evenodd" d="M9 11.5C9 13.99 6.99 16 4.5 16C2.01 16 0 13.99 0 11.5C0 9.01 2.01 7 4.5 7C6.99 7 9 9.01 9 11.5ZM8 11.5C8 13.43 6.43 15 4.5 15C2.57 15 1 13.43 1 11.5C1 9.57 2.57 8 4.5 8C6.43 8 8 9.57 8 11.5Z" fill="#3425FF"/>
</g>
<defs>
<clipPath id="clip0_5220_213">
<rect width="16" height="16" fill="white"/>
</clipPath>
</defs>
</svg>
