<svg width="53" height="53" viewBox="0 0 53 53" fill="none" xmlns="http://www.w3.org/2000/svg">
<rect x="0.980048" y="0.650275" width="51.0399" height="51.0399" rx="25.52" fill="white"/>
<rect x="0.980048" y="0.650275" width="51.0399" height="51.0399" rx="25.52" fill="#E8E6FF"/>
<rect x="0.980048" y="0.650275" width="51.0399" height="51.0399" rx="25.52" stroke="#E6E4F0" stroke-width="0.960095"/>
<rect x="0.980048" y="0.650275" width="51.0399" height="51.0399" rx="25.52" stroke="#3425FF" stroke-width="0.960095"/>
<path d="M37.3884 20.4H35.5218V17.4755C35.5218 16.1717 34.4612 15.1111 33.1573 15.1111H19.2195C17.9157 15.1111 16.8551 16.1717 16.8551 17.4755V20.4H14.9884C14.645 20.4 14.3662 20.6787 14.3662 21.0222V25.3778C14.3662 25.7212 14.645 26 14.9884 26C15.3319 26 15.6107 25.7212 15.6107 25.3778V21.6444H16.8551V32.3466C16.8551 33.4797 17.6562 34.428 18.7218 34.6573V35.9555C18.7218 36.6418 19.2799 37.2 19.9662 37.2H21.8329C22.5192 37.2 23.0773 36.6418 23.0773 35.9555V34.7111H28.9884V35.9555C28.9884 36.6418 29.5466 37.2 30.2329 37.2H32.0995C32.7859 37.2 33.344 36.6418 33.344 35.9555V34.7018C34.5607 34.6059 35.5218 33.5877 35.5218 32.3466V21.6444H36.7662V25.6889C36.7662 26.0323 37.045 26.3111 37.3884 26.3111C37.7319 26.3111 38.0107 26.0323 38.0107 25.6889V21.0222C38.0107 20.6787 37.7319 20.4 37.3884 20.4ZM33.1573 33.4666H29.2653L28.9835 31.2117C28.9446 30.9003 28.6801 30.6666 28.3662 30.6666H24.0107C23.6967 30.6666 23.4323 30.9003 23.3934 31.2117L23.1115 33.4666H19.2195C18.9206 33.4666 18.6499 33.3472 18.4489 33.1555H21.5218C21.8652 33.1555 22.144 32.8768 22.144 32.5333V30.3555C22.144 30.0121 21.8652 29.7333 21.5218 29.7333H18.0995V29.1111H34.2773V29.7333H30.8551C30.5116 29.7333 30.2329 30.0121 30.2329 30.3555V32.5333C30.2329 32.8768 30.5116 33.1555 30.8551 33.1555H33.9279C33.7267 33.3472 33.4563 33.4666 33.1573 33.4666ZM28.0115 33.4666H24.3653L24.5598 31.9111H27.8168L28.0115 33.4666ZM18.0995 19.4666H34.2773V27.8666H25.5503C25.3939 26.2968 24.0654 25.0666 22.4551 25.0666C20.8448 25.0666 19.5163 26.2968 19.3599 27.8666H18.0995V19.4666ZM24.2938 27.8666H20.6164C20.7651 26.9853 21.5317 26.3111 22.4551 26.3111C23.3785 26.3111 24.1447 26.9853 24.2938 27.8666ZM18.0995 31.9111V30.9778H20.8995V31.9111H18.0995ZM31.4773 31.9111V30.9778H34.2773V31.9111H31.4773ZM19.2195 16.3555H33.1573C33.7749 16.3555 34.2773 16.858 34.2773 17.4755V18.2222H18.0995V17.4755C18.0995 16.858 18.602 16.3555 19.2195 16.3555ZM21.8329 35.9555H19.9662V34.7111H21.8329V35.9555ZM30.2329 35.9555V34.7111H32.0995V35.9555H30.2329Z" fill="#3425FF"/>
<path d="M22.4551 24.7556C23.656 24.7556 24.6329 23.7787 24.6329 22.5778C24.6329 21.3769 23.656 20.4 22.4551 20.4C21.2542 20.4 20.2773 21.3769 20.2773 22.5778C20.2773 23.7787 21.2542 24.7556 22.4551 24.7556ZM22.4551 21.6445C22.9697 21.6445 23.3885 22.0632 23.3885 22.5778C23.3885 23.0924 22.9697 23.5111 22.4551 23.5111C21.9405 23.5111 21.5218 23.0924 21.5218 22.5778C21.5218 22.0632 21.9405 21.6445 22.4551 21.6445Z" fill="#3425FF"/>
</svg>
