<svg width="25" height="8" viewBox="0 0 25 8" fill="none" xmlns="http://www.w3.org/2000/svg">
<path d="M24.1581 7.17023H4.16627C2.1449 7.17023 0.5 5.60021 0.5 3.67041C0.5 1.74061 2.1449 0.170227 4.16627 0.170227C6.18764 0.170227 7.83217 1.74061 7.83217 3.67041C7.83217 3.85066 7.67907 3.99682 7.49027 3.99682C7.30146 3.99682 7.14837 3.85066 7.14837 3.67041C7.14837 2.10039 5.81079 0.823039 4.16627 0.823039C2.52175 0.823039 1.1838 2.10039 1.1838 3.67041C1.1838 5.24007 2.52175 6.5174 4.16627 6.5174H24.1581C24.3469 6.5174 24.5 6.66357 24.5 6.84382C24.5 7.02407 24.3473 7.17023 24.1581 7.17023Z" fill="white"/>
<path d="M20.2442 4.3084H4.58994C4.40114 4.3084 4.24805 4.16223 4.24805 3.98198C4.24805 3.80173 4.40114 3.65558 4.58994 3.65558H20.2442C20.4331 3.65558 20.5861 3.80173 20.5861 3.98198C20.5861 4.16223 20.4331 4.3084 20.2442 4.3084Z" fill="white"/>
</svg>
