<svg width="23" height="21" viewBox="0 0 23 21" fill="none" xmlns="http://www.w3.org/2000/svg">
<path d="M10.1946 11.0475L0.329786 15.0071C-0.223931 15.2379 -0.037772 16.001 0.571475 16.001H5.28891C5.34502 16.001 5.39882 16.0213 5.4385 16.0573C5.47817 16.0934 5.50046 16.1423 5.50046 16.1933V20.4814C5.50046 21.0353 6.34663 21.2026 6.59943 20.7006L10.9477 11.7322C10.9964 11.6364 11.0116 11.5293 10.9912 11.4254C10.9708 11.3215 10.9159 11.2257 10.8338 11.1511C10.7517 11.0765 10.6464 11.0265 10.5321 11.008C10.4178 10.9895 10.3 11.0033 10.1946 11.0475Z" fill="white"/>
<path d="M10.0797 2.23977C15.6022 2.23977 20.0796 6.71717 20.0796 12.2397C20.0728 12.4339 19.9908 12.6179 19.851 12.7528C19.7112 12.8878 19.5244 12.9632 19.3301 12.9632C19.1358 12.9632 18.949 12.8878 18.8092 12.7528C18.6694 12.6179 18.5874 12.4339 18.5806 12.2397C18.5807 11.1233 18.3609 10.0178 17.9337 8.98642C17.5066 7.955 16.8804 7.01783 16.091 6.22843C15.3016 5.43903 14.3644 4.81287 13.333 4.3857C12.3016 3.95854 11.1961 3.73873 10.0797 3.73884C9.97909 3.74239 9.87875 3.72564 9.78471 3.68957C9.69067 3.6535 9.60486 3.59886 9.5324 3.52891C9.45993 3.45896 9.4023 3.37513 9.36294 3.28242C9.32357 3.18971 9.30329 3.09003 9.30329 2.98931C9.30329 2.88859 9.32357 2.7889 9.36294 2.69619C9.4023 2.60349 9.45993 2.51965 9.5324 2.4497C9.60486 2.37975 9.69067 2.32511 9.78471 2.28905C9.87875 2.25298 9.97909 2.23622 10.0797 2.23977ZM10.0805 6.23846C11.6717 6.23852 13.1977 6.87065 14.3229 7.99582C15.4481 9.12099 16.0802 10.647 16.0803 12.2383C16.082 12.3378 16.064 12.4368 16.0271 12.5293C15.9902 12.6218 15.9353 12.706 15.8655 12.7771C15.7958 12.8482 15.7125 12.9046 15.6207 12.9432C15.5289 12.9817 15.4303 13.0016 15.3307 13.0016C15.2311 13.0017 15.1325 12.9819 15.0407 12.9434C14.9488 12.905 14.8655 12.8486 14.7957 12.7776C14.7259 12.7066 14.6709 12.6224 14.6339 12.5299C14.597 12.4375 14.5788 12.3385 14.5805 12.239C14.5805 11.648 14.4641 11.0629 14.2379 10.5169C14.0118 9.97091 13.6803 9.47483 13.2625 9.05696C12.8446 8.6391 12.3485 8.30763 11.8025 8.08148C11.2566 7.85533 10.6714 7.73894 10.0805 7.73894C9.88624 7.73209 9.70227 7.65012 9.56731 7.5103C9.43234 7.37049 9.35691 7.18374 9.35691 6.98941C9.35691 6.79508 9.43234 6.60833 9.56731 6.46852C9.70227 6.3287 9.88624 6.24673 10.0805 6.23988" fill="white"/>
</svg>
