<svg width="21" height="21" viewBox="0 0 21 21" fill="none" xmlns="http://www.w3.org/2000/svg">
<rect x="0.5" y="0.170227" width="20" height="20" rx="10" fill="#ECECEC"/>
<path fill-rule="evenodd" clip-rule="evenodd" d="M15.2781 7.09277L10.9379 11.0138C10.8146 11.1252 10.6595 11.1862 10.4993 11.1862C10.3392 11.1862 10.184 11.1252 10.0607 11.0138L5.72256 7.09277C5.69929 7.16921 5.68745 7.24923 5.6875 7.32977V13.3298C5.6875 13.5287 5.75993 13.7195 5.88886 13.8601C6.0178 14.0008 6.19266 14.0798 6.375 14.0798H14.625C14.8073 14.0798 14.9822 14.0008 15.1111 13.8601C15.2401 13.7195 15.3125 13.5287 15.3125 13.3298V7.32977C15.3128 7.24927 15.3012 7.16925 15.2781 7.09277ZM6.375 5.82977H14.625C14.9897 5.82977 15.3394 5.98781 15.5973 6.26911C15.8551 6.55042 16 6.93195 16 7.32977V13.3298C16 13.7276 15.8551 14.1091 15.5973 14.3904C15.3394 14.6717 14.9897 14.8298 14.625 14.8298H6.375C6.01033 14.8298 5.66059 14.6717 5.40273 14.3904C5.14487 14.1091 5 13.7276 5 13.3298V7.32977C5 6.93195 5.14487 6.55042 5.40273 6.26911C5.66059 5.98781 6.01033 5.82977 6.375 5.82977ZM6.23062 6.57977L10.0641 10.032C10.1869 10.1427 10.3411 10.2034 10.5003 10.2038C10.6596 10.2042 10.814 10.1443 10.9372 10.0343L14.8092 6.57977H6.23062Z" fill="#3425FF"/>
</svg>
