<svg width="25" height="16" viewBox="0 0 25 16" fill="none" xmlns="http://www.w3.org/2000/svg">
<path d="M6.875 11.5H18.125M17 1.375C19.6314 1.375 20.9465 1.375 21.9072 1.978C22.4084 2.29282 22.8322 2.71658 23.147 3.21775C23.75 4.1785 23.75 5.4925 23.75 8.125C23.75 10.7575 23.75 12.0715 23.1459 13.0323C22.8316 13.5328 22.4086 13.9561 21.9084 14.2709C20.9454 14.875 19.6303 14.875 17 14.875H8C5.36863 14.875 4.0535 14.875 3.09275 14.2709C2.59182 13.9567 2.16809 13.5337 1.853 13.0334C1.25 12.0704 1.25 10.7553 1.25 8.125C1.25 5.49475 1.25 4.1785 1.853 3.21775C2.16782 2.71658 2.59158 2.29282 3.09275 1.978C4.0535 1.375 5.3675 1.375 8 1.375H17Z" stroke="#959595" stroke-width="1.26" stroke-linecap="round"/>
</svg>
