<svg width="45" height="44" viewBox="0 0 45 44" fill="none" xmlns="http://www.w3.org/2000/svg">
<path d="M20.5039 1.47168C21.5332 0.922174 22.7498 0.892819 23.7979 1.39746C26.5265 2.71132 31.5055 5.24167 34.6758 7.63477C37.4087 9.6977 40.7579 13.1381 42.5605 15.0615C43.2767 15.8259 43.6236 16.8522 43.5146 17.8916C43.2329 20.5793 42.5996 25.5294 41.4961 28.9639C40.3202 32.6233 37.678 37.5913 36.25 40.1533C35.7363 41.075 34.8556 41.7217 33.8232 41.9326C31.0608 42.4968 25.8463 43.4473 22.1201 43.4473C18.3494 43.4472 13.0561 42.4742 10.3213 41.9131C9.33949 41.7116 8.49321 41.1159 7.97363 40.2598C6.44179 37.7348 3.51656 32.6667 2.3252 28.9639C1.22481 25.5436 0.795649 20.6137 0.637695 17.9248C0.576517 16.8833 0.976158 15.8762 1.73047 15.1445C3.68479 13.2488 7.37047 9.77742 10.2793 7.63867C13.3209 5.40232 17.9334 2.84418 20.5039 1.47168Z" fill="#3425FF" stroke="url(#paint0_linear_3877_3675)" stroke-width="1.10602"/>
<g filter="url(#filter0_f_3877_3675)">
<path d="M21.0662 17.835H27.9125M16.5019 17.835H17.643M16.5019 23.5403H17.643M16.5019 29.2456H17.643M21.0662 23.5403H27.9125M21.0662 29.2456H27.9125M11.3672 23.5403C11.3672 18.4306 11.3672 15.8746 12.9544 14.2874C14.5416 12.7002 17.0964 12.7002 22.2072 12.7002C27.3169 12.7002 29.8729 12.7002 31.4601 14.2874C33.0473 15.8746 33.0473 18.4295 33.0473 23.5403C33.0473 28.6499 33.0473 31.2059 31.4601 32.7931C29.8729 34.3803 27.318 34.3803 22.2072 34.3803C17.0976 34.3803 14.5416 34.3803 12.9544 32.7931C11.3672 31.2059 11.3672 28.6511 11.3672 23.5403Z" stroke="black" stroke-width="1.71159" stroke-linecap="round" stroke-linejoin="round"/>
</g>
<path d="M21.0662 17.8349H27.9125M16.5019 17.8349H17.643M16.5019 23.5401H17.643M16.5019 29.2454H17.643M21.0662 23.5401H27.9125M21.0662 29.2454H27.9125M11.3672 23.5401C11.3672 18.4305 11.3672 15.8745 12.9544 14.2873C14.5416 12.7001 17.0964 12.7001 22.2072 12.7001C27.3169 12.7001 29.8729 12.7001 31.4601 14.2873C33.0473 15.8745 33.0473 18.4294 33.0473 23.5401C33.0473 28.6498 33.0473 31.2058 31.4601 32.793C29.8729 34.3802 27.318 34.3802 22.2072 34.3802C17.0976 34.3802 14.5416 34.3802 12.9544 32.793C11.3672 31.2058 11.3672 28.6509 11.3672 23.5401Z" stroke="white" stroke-width="1.10602" stroke-linecap="round" stroke-linejoin="round"/>
<path d="M21.0662 17.8349H27.9125M16.5019 17.8349H17.643M16.5019 23.5401H17.643M16.5019 29.2454H17.643M21.0662 23.5401H27.9125M21.0662 29.2454H27.9125M11.3672 23.5401C11.3672 18.4305 11.3672 15.8745 12.9544 14.2873C14.5416 12.7001 17.0964 12.7001 22.2072 12.7001C27.3169 12.7001 29.8729 12.7001 31.4601 14.2873C33.0473 15.8745 33.0473 18.4294 33.0473 23.5401C33.0473 28.6498 33.0473 31.2058 31.4601 32.793C29.8729 34.3802 27.318 34.3802 22.2072 34.3802C17.0976 34.3802 14.5416 34.3802 12.9544 32.793C11.3672 31.2058 11.3672 28.6509 11.3672 23.5401Z" stroke="url(#paint1_linear_3877_3675)" stroke-width="1.10602" stroke-linecap="round" stroke-linejoin="round"/>
<defs>
<filter id="filter0_f_3877_3675" x="6.59399" y="7.9267" width="31.227" height="31.2271" filterUnits="userSpaceOnUse" color-interpolation-filters="sRGB">
<feFlood flood-opacity="0" result="BackgroundImageFix"/>
<feBlend mode="normal" in="SourceGraphic" in2="BackgroundImageFix" result="shape"/>
<feGaussianBlur stdDeviation="1.95886" result="effect1_foregroundBlur_3877_3675"/>
</filter>
<linearGradient id="paint0_linear_3877_3675" x1="-1.15759" y1="0.0357008" x2="45.9534" y2="45.9483" gradientUnits="userSpaceOnUse">
<stop stop-color="#B0B0B0"/>
<stop offset="0.155751" stop-color="#F0F0F0"/>
<stop offset="0.260619" stop-color="#9E9D9D"/>
<stop offset="0.35238" stop-color="#F2F2F2"/>
<stop offset="0.473662" stop-color="#B5B5B5"/>
<stop offset="0.635856" stop-color="#C7C7C7"/>
<stop offset="0.735797" stop-color="#555555"/>
<stop offset="0.861978" stop-color="#D4D4D4"/>
<stop offset="1" stop-color="#666666"/>
</linearGradient>
<linearGradient id="paint1_linear_3877_3675" x1="10.7999" y1="12.7177" x2="34.0093" y2="35.2135" gradientUnits="userSpaceOnUse">
<stop stop-color="#B0B0B0"/>
<stop offset="0.155751" stop-color="#F0F0F0"/>
<stop offset="0.260619" stop-color="#9E9D9D"/>
<stop offset="0.35238" stop-color="#F2F2F2"/>
<stop offset="0.473662" stop-color="#B5B5B5"/>
<stop offset="0.635856" stop-color="#C7C7C7"/>
<stop offset="0.735797" stop-color="#555555"/>
<stop offset="0.861978" stop-color="#D4D4D4"/>
<stop offset="1" stop-color="#666666"/>
</linearGradient>
</defs>
</svg>
