<svg width="26" height="27" viewBox="0 0 26 27" fill="none" xmlns="http://www.w3.org/2000/svg">
<rect x="0.5" y="1.17023" width="25" height="25" rx="12.5" fill="#FFE6E6"/>
<rect x="0.5" y="1.17023" width="25" height="25" rx="12.5" stroke="#FF2525"/>
<path d="M19.3359 16.7249C19.0779 16.2342 18.5298 15.8947 17.8379 15.9798H17.8369C16.9842 16.0845 16.0238 16.2407 15.0615 16.4769C13.5397 16.8501 12.2164 17.6104 11.2939 18.2581V18.2571L11.0195 18.4554V18.4564L10.8965 18.5482H10.8955L10.6641 18.7278V18.7288L10.4561 18.8968L10.2188 19.0999C10.1462 19.1645 10.118 19.2239 10.1074 19.2698C10.096 19.3195 10.1002 19.3761 10.123 19.4349C10.1708 19.5574 10.2853 19.6515 10.4199 19.6673L10.4844 19.6702H16.5986C17.034 19.6702 17.464 19.5794 17.8604 19.4046C18.2569 19.2297 18.6111 18.9744 18.8984 18.6566L19.0059 18.5306L19.1416 18.3655C19.5647 17.846 19.5917 17.2113 19.3359 16.7249ZM17.8926 16.3753C18.387 16.3147 18.7658 16.5494 18.9512 16.8997L18.9561 16.9085C19.0433 17.0814 19.0829 17.2745 19.0703 17.4681C19.0609 17.6132 19.0224 17.7542 18.958 17.8831L18.8848 18.0081L18.877 18.0189L18.8193 18.0999L18.8105 18.1116L18.8008 18.1243L18.6582 18.2991H18.6572C18.4272 18.5809 18.1404 18.8118 17.8154 18.9778C17.4903 19.1439 17.1336 19.2417 16.7686 19.265L16.7607 19.2659H16.752L16.6133 19.2698H10.4893L11.8818 18.3528C12.7312 17.793 13.8747 17.1807 15.1689 16.8636L15.1719 16.8626C16.0682 16.6478 16.9771 16.4847 17.8936 16.3753H17.8926ZM8.64062 6.67316C8.41759 6.68884 8.24068 6.81016 8.10938 6.97491L8.1084 6.97589C8.00515 7.10456 7.92149 7.26874 7.85254 7.45343L7.78809 7.64484C7.66796 8.04199 7.59158 8.54043 7.54785 9.07843L7.51465 9.62823C7.49544 10.0926 7.49557 10.5795 7.51074 11.054L7.53125 11.5237L7.56055 11.9749C7.60968 12.6411 7.68595 13.2066 7.7666 13.5618C8.12992 15.1644 8.74728 16.0565 9.36719 16.5169C9.98135 16.9725 10.6072 17.0055 10.9297 16.847H10.9307C11.0804 16.7738 11.2572 16.623 11.4277 16.43C11.5775 16.2572 11.7098 16.0706 11.8223 15.8734L11.9277 15.6722L12.0312 15.4388C12.2553 14.8756 12.3529 14.1853 12.1064 13.4603C11.945 12.9853 11.6349 12.6776 11.3096 12.4144L11.3086 12.4153L11.085 12.2366L11.084 12.2376C10.7297 11.9612 10.3683 11.6762 10.0752 11.2005L9.9541 10.9847C9.83131 10.7439 9.78487 10.3787 9.77344 9.9339V9.92609L9.77051 9.71417V9.70343L9.77637 9.18097V9.17804L9.78125 8.54523C9.77625 8.09076 9.74446 7.63885 9.60449 7.29718C9.53307 7.12315 9.42966 6.96379 9.27441 6.84796C9.18003 6.7797 9.07264 6.73187 8.95996 6.70245L9.23242 7.51593C9.31868 7.77272 9.34918 8.12751 9.35352 8.54913V8.75812L9.34766 9.24054V9.24152C9.34407 9.47693 9.3403 9.714 9.3457 9.94171C9.35706 10.3884 9.40159 10.8308 9.56738 11.1556V11.1566C9.8366 11.6857 10.1823 12.0302 10.5068 12.3011L10.6992 12.4583L10.8086 12.5433L10.8096 12.5443C11.2173 12.8627 11.541 13.1167 11.6982 13.5804C11.9403 14.2907 11.8007 14.9713 11.5381 15.5071V15.5062C11.4089 15.7732 11.251 15.9993 11.1006 16.1712V16.1722C11.027 16.257 10.961 16.3196 10.9111 16.3636L10.9014 16.3724L10.8477 16.4163L10.6992 16.5413L10.5068 16.5325L10.4385 16.5306L10.4189 16.5286C10.2569 16.5155 10.0248 16.4614 9.75195 16.2864L9.63281 16.2034C9.11833 15.8207 8.53536 15.0269 8.18457 13.4788V13.4778C8.15064 13.3266 8.11788 13.1408 8.08887 12.9329L8.08789 12.9261L8.04883 12.6068C8.04089 12.5444 8.03406 12.4806 8.02832 12.4153L7.99414 12.0443L7.99316 12.0345L7.96582 11.637L7.96484 11.6292L7.9541 11.4232L7.95312 11.4144L7.9375 10.9905L7.93652 10.9866C7.92246 10.5394 7.9249 10.0919 7.94238 9.64484V9.64288L7.97461 9.10675C8.01006 8.67287 8.06695 8.27475 8.14844 7.94366L8.2002 7.75323C8.22798 7.65945 8.26138 7.5691 8.29883 7.48077L8.64062 6.67316Z" fill="black" stroke="#FF2525"/>
</svg>
