<svg width="25" height="8" viewBox="0 0 25 8" fill="none" xmlns="http://www.w3.org/2000/svg">
<path d="M20.8337 7.17023H0.8419C0.653094 7.17023 0.5 7.02407 0.5 6.84382C0.5 6.66357 0.653094 6.5174 0.8419 6.5174H20.8337C22.4782 6.5174 23.8162 5.24007 23.8162 3.67041C23.8162 2.10039 22.4786 0.823039 20.8337 0.823039C19.1895 0.823039 17.8515 2.10039 17.8515 3.67041C17.8515 3.85066 17.6984 3.99682 17.5096 3.99682C17.3208 3.99682 17.1677 3.85066 17.1677 3.67041C17.1677 1.74061 18.8123 0.170227 20.8337 0.170227C22.8551 0.170227 24.5 1.74061 24.5 3.67041C24.5 5.60021 22.8555 7.17023 20.8337 7.17023Z" fill="white"/>
<path d="M20.4096 4.3084H4.755C4.56619 4.3084 4.41309 4.16223 4.41309 3.98198C4.41309 3.80173 4.56619 3.65558 4.755 3.65558H20.4096C20.5984 3.65558 20.7514 3.80173 20.7514 3.98198C20.7514 4.16223 20.5984 4.3084 20.4096 4.3084Z" fill="white"/>
</svg>
