<svg width="36" height="37" viewBox="0 0 36 37" fill="none" xmlns="http://www.w3.org/2000/svg">
<path d="M15 13.2043V27.3133M21 9.50012V23.7507M9 15.3123C9 13.8119 9 13.0628 9.393 12.6251C9.53209 12.4694 9.70129 12.3446 9.89 12.2586C10.422 12.0184 11.121 12.2556 12.519 12.7299C13.586 13.0923 14.119 13.2735 14.659 13.2541C14.8571 13.2475 15.0541 13.2209 15.247 13.1747C15.772 13.0475 16.24 12.7299 17.176 12.0958L18.558 11.1573C19.758 10.3429 20.357 9.93578 21.045 9.84315C21.733 9.74849 22.417 9.98057 23.784 10.4447L24.949 10.8397C25.939 11.1756 26.434 11.3435 26.717 11.7436C27 12.1436 27 12.676 27 13.7366V22.0111C27 23.5105 27 24.2607 26.607 24.6984C26.4677 24.8533 26.2985 24.9774 26.11 25.0628C25.578 25.304 24.879 25.0668 23.481 24.5925C22.414 24.2301 21.881 24.0489 21.341 24.0683C21.1429 24.0749 20.9459 24.1015 20.753 24.1477C20.228 24.2749 19.76 24.5925 18.824 25.2266L17.442 26.1651C16.242 26.9795 15.643 27.3866 14.955 27.4793C14.267 27.5739 13.583 27.3418 12.216 26.8777L11.051 26.4827C10.061 26.1468 9.566 25.9789 9.283 25.5788C9 25.1788 9 24.6464 9 23.5858V15.3123Z" stroke="#3425FF" stroke-width="1.125"/>
<path d="M26.3772 16.5001C24.7203 16.5001 23.1007 16.9914 21.7231 17.9119C20.3455 18.8324 19.2717 20.1408 18.6377 21.6715C18.0036 23.2022 17.8377 24.8866 18.161 26.5116C18.4842 28.1366 19.2821 29.6293 20.4536 30.8009C21.6252 31.9724 23.1179 32.7703 24.7429 33.0935C26.3679 33.4168 28.0523 33.2509 29.583 32.6168C31.1137 31.9828 32.4221 30.909 33.3426 29.5314C34.2631 28.1538 34.7544 26.5342 34.7544 24.8773C34.7526 22.6561 33.8694 20.5264 32.2987 18.9558C30.7281 17.3851 28.5984 16.5019 26.3772 16.5001Z" fill="white" stroke="#3425FF"/>
<path d="M28.7836 22.6325C28.7755 22.5974 28.7576 22.5652 28.7321 22.5396C28.7066 22.5141 28.6744 22.4963 28.6392 22.4882L22.6373 20.8829C22.6022 20.8733 22.5652 20.8734 22.5301 20.883C22.495 20.8927 22.4632 20.9116 22.4379 20.9379C22.4126 20.9637 22.3942 20.9955 22.3846 21.0304C22.375 21.0653 22.3744 21.1021 22.3829 21.1372L23.9882 27.1219C23.9963 27.1571 24.0142 27.1893 24.0397 27.2148C24.0652 27.2404 24.0974 27.2582 24.1326 27.2663L30.1173 28.8716C30.1525 28.8804 30.1893 28.88 30.2242 28.8703C30.2591 28.8606 30.2909 28.8421 30.3166 28.8165C30.3422 28.7909 30.3607 28.759 30.3704 28.7241C30.38 28.6892 30.3805 28.6524 30.3717 28.6172L28.7836 22.6325Z" fill="#3425FF" stroke="#3425FF" stroke-width="0.4"/>
</svg>
