<svg width="49" height="50" viewBox="0 0 49 50" fill="none" xmlns="http://www.w3.org/2000/svg">
<rect x="0.5" y="0.670227" width="48" height="48" rx="24" fill="#E8E6FF"/>
<rect x="0.5" y="0.670227" width="48" height="48" rx="24" stroke="#3425FF"/>
<path d="M34.0206 32.7289C33.9205 32.2757 33.4488 31.9844 32.9669 32.0786C32.4849 32.1727 32.1754 32.6164 32.2754 33.0696C32.3146 33.2469 32.2668 33.4298 32.1443 33.5713C32.0771 33.649 31.9287 33.7792 31.6896 33.7792H25.7714L28.1779 27.9919C29.0543 28.419 29.8468 29.0012 30.5076 29.7184C30.8298 30.0683 31.3927 30.1061 31.7647 29.8031C32.1367 29.5 32.177 28.9707 31.8547 28.6209C30.7605 27.4331 29.3719 26.5471 27.8335 26.0245C28.9496 25.1398 29.66 23.8161 29.66 22.3391C29.66 21.4715 29.4178 20.6396 28.9638 19.9105L31.7098 18.959V23.0934C31.7098 23.5563 32.1087 23.9315 32.6009 23.9315C33.0931 23.9315 33.4921 23.5563 33.4921 23.0934V17.8134C33.4921 17.8051 33.491 17.7971 33.4908 17.7889C33.4912 17.7783 33.4921 17.7677 33.4921 17.757V17.7099C33.4921 17.3618 33.2633 17.05 32.9173 16.9264L24.8773 14.0546C24.6744 13.9821 24.4502 13.9818 24.247 14.0537L16.1566 16.9177C15.8093 17.0406 15.5794 17.3531 15.5794 17.7021V17.7492C15.5794 18.1011 15.8131 18.4155 16.1645 18.5364L20.1168 19.8956C19.6569 20.6279 19.4114 21.465 19.4114 22.3391C19.4114 23.8178 20.1234 25.1427 21.2416 26.0274C20.2093 26.3792 19.2403 26.8953 18.3839 27.5597C16.6814 28.8805 15.4977 30.7228 15.0508 32.7472C14.9032 33.4158 15.0807 34.1022 15.5378 34.6304C15.9915 35.1548 16.6636 35.4555 17.3818 35.4555H31.6896C32.4029 35.4555 33.0725 35.1543 33.5268 34.6293C33.9892 34.0949 34.1692 33.4022 34.0206 32.7289ZM18.9649 17.7146L24.5595 15.7341L30.1246 17.7219L27.6175 18.5907C26.7416 18.2082 25.3804 18.1394 24.5456 18.1376C23.7105 18.135 22.3482 18.1984 21.4721 18.5768L18.9649 17.7146ZM21.1938 22.3391C21.1938 21.4971 21.5431 20.7076 22.1771 20.1135C22.3492 20.0146 23.1407 19.8138 24.512 19.8138C24.5224 19.8138 24.533 19.8138 24.5435 19.8138C25.935 19.8169 26.7353 20.0245 26.9069 20.1251C27.5328 20.7179 27.8776 21.5032 27.8776 22.3391C27.8776 24.0721 26.3784 25.482 24.5357 25.482C22.693 25.482 21.1938 24.0721 21.1938 22.3391ZM17.3818 33.7793C17.1359 33.7793 16.9871 33.6497 16.9203 33.5725C16.8515 33.4929 16.7439 33.3242 16.796 33.0879C17.2901 30.8495 18.8441 29.0112 20.8974 28.0015L23.3 33.7793H17.3818ZM22.56 27.3971C23.1948 27.2412 23.8574 27.1582 24.5357 27.1582C25.2098 27.1582 25.8734 27.2392 26.5127 27.394L24.5357 32.1485L22.56 27.3971Z" fill="#3425FF"/>
</svg>
