<svg width="22" height="22" viewBox="0 0 22 22" fill="none" xmlns="http://www.w3.org/2000/svg">
<path d="M18.6262 0H3.37402C2.54473 0 1.87012 0.674609 1.87012 1.50391V16.7561C1.87012 17.5854 2.54473 18.26 3.37402 18.26H8.77992V20.4961C8.77992 21.3254 9.45453 22 10.2838 22H11.7164C12.5457 22 13.2203 21.3254 13.2203 20.4961V18.26H18.6262C19.4555 18.26 20.1301 17.5854 20.1301 16.7561V1.50391C20.1301 0.674609 19.4555 0 18.6262 0ZM11.9313 20.4961C11.9313 20.6147 11.8346 20.7109 11.7164 20.7109H10.2838C10.1657 20.7109 10.069 20.6147 10.069 20.4961V18.26H11.9313V20.4961Z" fill="#3425FF"/>
<path d="M14.5586 2.59058H7.44043C6.61113 2.59058 5.93652 3.26519 5.93652 4.09448V14.1655C5.93652 14.9944 6.61113 15.6694 7.44043 15.6694H8.38145C9.21139 15.6694 9.88535 14.9937 9.88535 14.1655C9.88535 14.096 9.88535 14.0548 9.88535 14.0314C9.88535 14.0112 9.88535 14.0042 9.88535 14.0042C9.88535 13.9342 9.88535 13.7044 9.88535 13.0393H12.1137V14.1655C12.1137 14.9928 12.7867 15.6694 13.6176 15.6694H14.5586C15.3879 15.6694 16.0625 14.9944 16.0625 14.1655C16.0625 14.1429 16.0625 4.09908 16.0625 4.09448C16.0625 3.26519 15.3879 2.59058 14.5586 2.59058ZM7.22559 6.79228H10.3405V8.8378H7.22559V6.79228ZM8.59629 14.1655C8.59629 14.2837 8.50004 14.3803 8.38145 14.3803H7.44043C7.32184 14.3803 7.22559 14.2837 7.22559 14.1655V13.0565H8.59629V14.1655ZM14.7735 14.1655C14.7735 14.2837 14.6772 14.3803 14.5586 14.3803H13.6176C13.499 14.3803 13.4028 14.2837 13.4028 14.1655V13.0565H14.7735V14.1655ZM14.7735 11.7502H7.22559V10.1269H14.7735V11.7502ZM14.7735 8.8378H11.6296V6.79228H14.7735V8.8378ZM14.7735 5.50321H7.22559V4.09448C7.22559 3.97632 7.32184 3.87964 7.44043 3.87964H14.5586C14.6772 3.87964 14.7735 3.97632 14.7735 4.09448V5.50321Z" fill="white"/>
</svg>
