<svg width="36" height="88" viewBox="0 0 36 88" fill="none" xmlns="http://www.w3.org/2000/svg">
<circle cx="18" cy="18.5" r="8" fill="#E2E0FF" stroke="#3425FF" stroke-linecap="round" stroke-dasharray="2 2"/>
<path d="M18 27L18 61" stroke="#3425FF" stroke-linecap="round" stroke-dasharray="4 4"/>
<path d="M17.75 64.0008C16.3576 64.0008 15.0223 64.5539 14.0377 65.5384C13.0531 66.523 12.5 67.8584 12.5 69.2508C12.5 71.3973 13.8365 73.468 15.3035 75.0723C16.0536 75.8895 16.8721 76.6412 17.75 77.3193C17.881 77.2188 18.0347 77.0963 18.2112 76.9518C18.9161 76.3729 19.5795 75.7454 20.1965 75.0738C21.6635 73.468 23 71.398 23 69.2508C23 67.8584 22.4469 66.523 21.4623 65.5384C20.4777 64.5539 19.1424 64.0008 17.75 64.0008ZM17.75 79.1613L17.3247 78.8687L17.3225 78.8673L17.318 78.8635L17.303 78.853L17.2468 78.8133L17.0443 78.6655C16.0181 77.8943 15.0649 77.0307 14.1965 76.0855C12.6635 74.407 11 71.9777 11 69.25C11 67.4598 11.7112 65.7429 12.977 64.477C14.2429 63.2112 15.9598 62.5 17.75 62.5C19.5402 62.5 21.2571 63.2112 22.523 64.477C23.7888 65.7429 24.5 67.4598 24.5 69.25C24.5 71.9777 22.8365 74.4078 21.3035 76.084C20.4353 77.0292 19.4823 77.8928 18.4565 78.664C18.371 78.7278 18.2848 78.7906 18.1978 78.8523L18.182 78.8628L18.1775 78.8665L18.176 78.8673L17.75 79.1613ZM17.75 67.7508C17.3522 67.7508 16.9706 67.9088 16.6893 68.1901C16.408 68.4714 16.25 68.8529 16.25 69.2508C16.25 69.6486 16.408 70.0301 16.6893 70.3114C16.9706 70.5927 17.3522 70.7508 17.75 70.7508C18.1478 70.7508 18.5294 70.5927 18.8107 70.3114C19.092 70.0301 19.25 69.6486 19.25 69.2508C19.25 68.8529 19.092 68.4714 18.8107 68.1901C18.5294 67.9088 18.1478 67.7508 17.75 67.7508ZM14.75 69.2508C14.75 68.4551 15.0661 67.692 15.6287 67.1294C16.1913 66.5668 16.9544 66.2508 17.75 66.2508C18.5456 66.2508 19.3087 66.5668 19.8713 67.1294C20.4339 67.692 20.75 68.4551 20.75 69.2508C20.75 70.0464 20.4339 70.8095 19.8713 71.3721C19.3087 71.9347 18.5456 72.2508 17.75 72.2508C16.9544 72.2508 16.1913 71.9347 15.6287 71.3721C15.0661 70.8095 14.75 70.0464 14.75 69.2508Z" fill="#3425FF"/>
</svg>
